<mxfile host="app.diagrams.net" agent="Mozilla/5.0 (Macintosh; Intel Mac OS X 10_15_7) AppleWebKit/537.36 (KHTML, like Gecko) Chrome/137.0.0.0 Safari/537.36 Edg/137.0.0.0" version="27.1.6">
  <diagram name="Page-1" id="-Iu4r7Bx4UjORBm17B5A">
    <mxGraphModel dx="2029" dy="1831" grid="1" gridSize="10" guides="1" tooltips="1" connect="1" arrows="1" fold="1" page="1" pageScale="1" pageWidth="850" pageHeight="1100" math="0" shadow="0">
      <root>
        <mxCell id="0" />
        <mxCell id="1" parent="0" />
        <mxCell id="yBwHXoivwdxCobR9T3mU-1" value="&lt;font style=&quot;font-size: 14px;&quot;&gt;int id;&lt;/font&gt;&lt;div&gt;&lt;font size=&quot;3&quot;&gt;String name;&lt;/font&gt;&lt;/div&gt;" style="rounded=0;whiteSpace=wrap;html=1;" parent="1" vertex="1">
          <mxGeometry x="425" y="210" width="135" height="110" as="geometry" />
        </mxCell>
        <mxCell id="yBwHXoivwdxCobR9T3mU-2" value="&lt;font style=&quot;font-size: 14px;&quot;&gt;1.Product&lt;/font&gt;" style="text;html=1;align=center;verticalAlign=middle;whiteSpace=wrap;rounded=0;" parent="1" vertex="1">
          <mxGeometry x="462.5" y="180" width="60" height="30" as="geometry" />
        </mxCell>
        <mxCell id="yBwHXoivwdxCobR9T3mU-3" value="" style="rounded=0;whiteSpace=wrap;html=1;" parent="1" vertex="1">
          <mxGeometry x="100" y="200" width="210" height="200" as="geometry" />
        </mxCell>
        <mxCell id="yBwHXoivwdxCobR9T3mU-4" value="&lt;font style=&quot;font-size: 14px;&quot;&gt;2.Product Category&lt;/font&gt;" style="text;html=1;align=center;verticalAlign=middle;whiteSpace=wrap;rounded=0;" parent="1" vertex="1">
          <mxGeometry x="152.5" y="160" width="127.5" height="30" as="geometry" />
        </mxCell>
        <mxCell id="yBwHXoivwdxCobR9T3mU-5" value="&lt;font style=&quot;font-size: 14px;&quot;&gt;int categoryId;&lt;/font&gt;&lt;div&gt;&lt;font size=&quot;3&quot;&gt;String categoryName;&lt;/font&gt;&lt;/div&gt;&lt;div&gt;&lt;font size=&quot;3&quot;&gt;List&amp;lt;Product&amp;gt; products;&lt;/font&gt;&lt;/div&gt;&lt;div&gt;&lt;font size=&quot;3&quot;&gt;double price;&lt;/font&gt;&lt;/div&gt;" style="text;html=1;align=center;verticalAlign=middle;whiteSpace=wrap;rounded=0;" parent="1" vertex="1">
          <mxGeometry x="110" y="225" width="190" height="80" as="geometry" />
        </mxCell>
        <mxCell id="yBwHXoivwdxCobR9T3mU-8" value="" style="endArrow=none;html=1;rounded=0;entryX=1.005;entryY=0.6;entryDx=0;entryDy=0;entryPerimeter=0;" parent="1" target="yBwHXoivwdxCobR9T3mU-3" edge="1">
          <mxGeometry width="50" height="50" relative="1" as="geometry">
            <mxPoint x="100" y="320" as="sourcePoint" />
            <mxPoint x="450" y="360" as="targetPoint" />
          </mxGeometry>
        </mxCell>
        <mxCell id="yBwHXoivwdxCobR9T3mU-9" value="// CRUD Operations" style="text;html=1;align=center;verticalAlign=middle;whiteSpace=wrap;rounded=0;" parent="1" vertex="1">
          <mxGeometry x="160" y="340" width="110" height="30" as="geometry" />
        </mxCell>
        <mxCell id="yBwHXoivwdxCobR9T3mU-10" value="" style="endArrow=classic;html=1;rounded=0;exitX=1;exitY=0.19;exitDx=0;exitDy=0;exitPerimeter=0;entryX=0;entryY=0.25;entryDx=0;entryDy=0;" parent="1" source="yBwHXoivwdxCobR9T3mU-3" target="yBwHXoivwdxCobR9T3mU-1" edge="1">
          <mxGeometry width="50" height="50" relative="1" as="geometry">
            <mxPoint x="400" y="410" as="sourcePoint" />
            <mxPoint x="450" y="360" as="targetPoint" />
          </mxGeometry>
        </mxCell>
        <mxCell id="yBwHXoivwdxCobR9T3mU-11" value="" style="rounded=0;whiteSpace=wrap;html=1;" parent="1" vertex="1">
          <mxGeometry x="-210" y="200" width="190" height="120" as="geometry" />
        </mxCell>
        <mxCell id="yBwHXoivwdxCobR9T3mU-12" value="&lt;font style=&quot;font-size: 14px;&quot;&gt;List&amp;lt;ProductCategory&amp;gt; list;&lt;/font&gt;" style="text;html=1;align=center;verticalAlign=middle;whiteSpace=wrap;rounded=0;" parent="1" vertex="1">
          <mxGeometry x="-200" y="225" width="180" height="30" as="geometry" />
        </mxCell>
        <mxCell id="yBwHXoivwdxCobR9T3mU-13" value="" style="endArrow=none;html=1;rounded=0;exitX=0;exitY=0.5;exitDx=0;exitDy=0;entryX=1;entryY=0.5;entryDx=0;entryDy=0;" parent="1" source="yBwHXoivwdxCobR9T3mU-11" target="yBwHXoivwdxCobR9T3mU-11" edge="1">
          <mxGeometry width="50" height="50" relative="1" as="geometry">
            <mxPoint x="130" y="410" as="sourcePoint" />
            <mxPoint x="180" y="360" as="targetPoint" />
          </mxGeometry>
        </mxCell>
        <mxCell id="yBwHXoivwdxCobR9T3mU-14" value="// CRUD Operations" style="text;html=1;align=center;verticalAlign=middle;whiteSpace=wrap;rounded=0;" parent="1" vertex="1">
          <mxGeometry x="-170" y="275" width="110" height="30" as="geometry" />
        </mxCell>
        <mxCell id="yBwHXoivwdxCobR9T3mU-15" value="" style="endArrow=classic;html=1;rounded=0;exitX=1;exitY=0.5;exitDx=0;exitDy=0;entryX=0;entryY=0.205;entryDx=0;entryDy=0;entryPerimeter=0;" parent="1" source="yBwHXoivwdxCobR9T3mU-12" target="yBwHXoivwdxCobR9T3mU-3" edge="1">
          <mxGeometry width="50" height="50" relative="1" as="geometry">
            <mxPoint x="180" y="410" as="sourcePoint" />
            <mxPoint x="230" y="360" as="targetPoint" />
          </mxGeometry>
        </mxCell>
        <mxCell id="yBwHXoivwdxCobR9T3mU-16" value="&lt;span style=&quot;font-size: 14px;&quot;&gt;3.Inventory&lt;/span&gt;" style="text;html=1;align=center;verticalAlign=middle;whiteSpace=wrap;rounded=0;" parent="1" vertex="1">
          <mxGeometry x="-140" y="160" width="60" height="30" as="geometry" />
        </mxCell>
        <mxCell id="yBwHXoivwdxCobR9T3mU-17" value="" style="rounded=0;whiteSpace=wrap;html=1;" parent="1" vertex="1">
          <mxGeometry x="-520" y="200" width="190" height="120" as="geometry" />
        </mxCell>
        <mxCell id="yBwHXoivwdxCobR9T3mU-18" value="&lt;span style=&quot;font-size: 14px;&quot;&gt;Inventory inventory;&lt;/span&gt;&lt;div&gt;&lt;span style=&quot;font-size: 14px;&quot;&gt;Address address;&lt;/span&gt;&lt;/div&gt;" style="text;html=1;align=center;verticalAlign=middle;whiteSpace=wrap;rounded=0;" parent="1" vertex="1">
          <mxGeometry x="-510" y="210" width="180" height="30" as="geometry" />
        </mxCell>
        <mxCell id="yBwHXoivwdxCobR9T3mU-19" value="" style="endArrow=none;html=1;rounded=0;exitX=0;exitY=0.5;exitDx=0;exitDy=0;entryX=1;entryY=0.5;entryDx=0;entryDy=0;" parent="1" source="yBwHXoivwdxCobR9T3mU-17" target="yBwHXoivwdxCobR9T3mU-17" edge="1">
          <mxGeometry width="50" height="50" relative="1" as="geometry">
            <mxPoint x="-180" y="410" as="sourcePoint" />
            <mxPoint x="-130" y="360" as="targetPoint" />
          </mxGeometry>
        </mxCell>
        <mxCell id="yBwHXoivwdxCobR9T3mU-20" value="// CRUD Operations" style="text;html=1;align=center;verticalAlign=middle;whiteSpace=wrap;rounded=0;" parent="1" vertex="1">
          <mxGeometry x="-480" y="275" width="110" height="30" as="geometry" />
        </mxCell>
        <mxCell id="yBwHXoivwdxCobR9T3mU-21" value="&lt;span style=&quot;font-size: 14px;&quot;&gt;4.Warehouse&lt;/span&gt;" style="text;html=1;align=center;verticalAlign=middle;whiteSpace=wrap;rounded=0;" parent="1" vertex="1">
          <mxGeometry x="-450" y="160" width="60" height="30" as="geometry" />
        </mxCell>
        <mxCell id="yBwHXoivwdxCobR9T3mU-22" value="" style="endArrow=classic;html=1;rounded=0;exitX=1;exitY=1;exitDx=0;exitDy=0;entryX=0;entryY=0.325;entryDx=0;entryDy=0;entryPerimeter=0;" parent="1" source="yBwHXoivwdxCobR9T3mU-18" target="yBwHXoivwdxCobR9T3mU-11" edge="1">
          <mxGeometry width="50" height="50" relative="1" as="geometry">
            <mxPoint x="-140" y="400" as="sourcePoint" />
            <mxPoint x="-90" y="350" as="targetPoint" />
          </mxGeometry>
        </mxCell>
        <mxCell id="yBwHXoivwdxCobR9T3mU-23" value="&lt;span style=&quot;font-size: 14px;&quot;&gt;int pinCode;&lt;/span&gt;&lt;div&gt;&lt;span style=&quot;font-size: 14px;&quot;&gt;String city;&lt;/span&gt;&lt;/div&gt;&lt;div&gt;&lt;span style=&quot;font-size: 14px;&quot;&gt;String state&lt;/span&gt;&lt;/div&gt;" style="rounded=0;whiteSpace=wrap;html=1;" parent="1" vertex="1">
          <mxGeometry x="-492" y="410" width="135" height="110" as="geometry" />
        </mxCell>
        <mxCell id="yBwHXoivwdxCobR9T3mU-24" value="&lt;span style=&quot;font-size: 14px;&quot;&gt;5.Address&lt;/span&gt;" style="text;html=1;align=center;verticalAlign=middle;whiteSpace=wrap;rounded=0;" parent="1" vertex="1">
          <mxGeometry x="-454.5" y="380" width="60" height="30" as="geometry" />
        </mxCell>
        <mxCell id="yBwHXoivwdxCobR9T3mU-27" value="" style="edgeStyle=elbowEdgeStyle;elbow=horizontal;endArrow=classic;html=1;curved=0;rounded=0;endSize=8;startSize=8;entryX=0;entryY=0.5;entryDx=0;entryDy=0;exitX=0;exitY=0.75;exitDx=0;exitDy=0;" parent="1" source="yBwHXoivwdxCobR9T3mU-17" target="yBwHXoivwdxCobR9T3mU-23" edge="1">
          <mxGeometry width="50" height="50" relative="1" as="geometry">
            <mxPoint x="-520" y="260" as="sourcePoint" />
            <mxPoint x="-110" y="350" as="targetPoint" />
            <Array as="points">
              <mxPoint x="-540" y="380" />
            </Array>
          </mxGeometry>
        </mxCell>
        <mxCell id="yBwHXoivwdxCobR9T3mU-33" value="" style="rounded=0;whiteSpace=wrap;html=1;" parent="1" vertex="1">
          <mxGeometry x="-540" y="-5" width="280" height="120" as="geometry" />
        </mxCell>
        <mxCell id="yBwHXoivwdxCobR9T3mU-34" value="&lt;span style=&quot;font-size: 14px;&quot;&gt;List&amp;lt;Warehouse&amp;gt; list;&lt;/span&gt;&lt;div&gt;&lt;span style=&quot;font-size: 14px;&quot;&gt;WarehouseSelectionStatergy statergy&lt;/span&gt;&lt;/div&gt;" style="text;html=1;align=center;verticalAlign=middle;whiteSpace=wrap;rounded=0;" parent="1" vertex="1">
          <mxGeometry x="-520" y="5" width="250" height="30" as="geometry" />
        </mxCell>
        <mxCell id="yBwHXoivwdxCobR9T3mU-35" value="" style="endArrow=none;html=1;rounded=0;exitX=0;exitY=0.5;exitDx=0;exitDy=0;entryX=1;entryY=0.5;entryDx=0;entryDy=0;" parent="1" source="yBwHXoivwdxCobR9T3mU-33" target="yBwHXoivwdxCobR9T3mU-33" edge="1">
          <mxGeometry width="50" height="50" relative="1" as="geometry">
            <mxPoint x="-200" y="205" as="sourcePoint" />
            <mxPoint x="-150" y="155" as="targetPoint" />
          </mxGeometry>
        </mxCell>
        <mxCell id="yBwHXoivwdxCobR9T3mU-36" value="// add warehouse&lt;div&gt;//remove warehouse&lt;/div&gt;" style="text;html=1;align=center;verticalAlign=middle;whiteSpace=wrap;rounded=0;" parent="1" vertex="1">
          <mxGeometry x="-460" y="70" width="150" height="30" as="geometry" />
        </mxCell>
        <mxCell id="yBwHXoivwdxCobR9T3mU-37" value="&lt;span style=&quot;font-size: 14px;&quot;&gt;6.Warehouse Controller&lt;/span&gt;" style="text;html=1;align=center;verticalAlign=middle;whiteSpace=wrap;rounded=0;" parent="1" vertex="1">
          <mxGeometry x="-480" y="-50" width="190" height="30" as="geometry" />
        </mxCell>
        <mxCell id="yBwHXoivwdxCobR9T3mU-39" value="" style="edgeStyle=elbowEdgeStyle;elbow=horizontal;endArrow=classic;html=1;curved=0;rounded=0;endSize=8;startSize=8;entryX=-0.016;entryY=0.333;entryDx=0;entryDy=0;entryPerimeter=0;exitX=-0.011;exitY=0.6;exitDx=0;exitDy=0;exitPerimeter=0;" parent="1" source="yBwHXoivwdxCobR9T3mU-33" target="yBwHXoivwdxCobR9T3mU-17" edge="1">
          <mxGeometry width="50" height="50" relative="1" as="geometry">
            <mxPoint x="-660" y="60" as="sourcePoint" />
            <mxPoint x="-200" y="160" as="targetPoint" />
            <Array as="points">
              <mxPoint x="-580" y="160" />
            </Array>
          </mxGeometry>
        </mxCell>
        <mxCell id="yBwHXoivwdxCobR9T3mU-40" value="" style="rounded=0;whiteSpace=wrap;html=1;" parent="1" vertex="1">
          <mxGeometry x="-177.5" y="-240" width="170" height="50" as="geometry" />
        </mxCell>
        <mxCell id="yBwHXoivwdxCobR9T3mU-41" value="&lt;span style=&quot;font-size: 14px;&quot;&gt;7.&lt;/span&gt;&lt;span style=&quot;font-size: 14px;&quot;&gt;WarehouseSelectionStatergy&lt;/span&gt;" style="text;html=1;align=center;verticalAlign=middle;whiteSpace=wrap;rounded=0;" parent="1" vertex="1">
          <mxGeometry x="-200" y="-280" width="210" height="30" as="geometry" />
        </mxCell>
        <mxCell id="yBwHXoivwdxCobR9T3mU-42" value="&lt;font style=&quot;font-size: 14px;&quot;&gt;WareHouse selectWH();&lt;/font&gt;" style="text;html=1;align=center;verticalAlign=middle;whiteSpace=wrap;rounded=0;" parent="1" vertex="1">
          <mxGeometry x="-177.5" y="-230" width="170" height="30" as="geometry" />
        </mxCell>
        <mxCell id="yBwHXoivwdxCobR9T3mU-43" value="&lt;font style=&quot;font-size: 14px;&quot;&gt;Nearrest&lt;br&gt;WHS&lt;/font&gt;" style="rounded=0;whiteSpace=wrap;html=1;" parent="1" vertex="1">
          <mxGeometry x="-230" y="-120" width="120" height="60" as="geometry" />
        </mxCell>
        <mxCell id="yBwHXoivwdxCobR9T3mU-44" value="&lt;font style=&quot;font-size: 14px;&quot;&gt;Cheapest&lt;br&gt;WHS&lt;/font&gt;" style="rounded=0;whiteSpace=wrap;html=1;" parent="1" vertex="1">
          <mxGeometry x="-60" y="-120" width="120" height="60" as="geometry" />
        </mxCell>
        <mxCell id="yBwHXoivwdxCobR9T3mU-45" value="" style="shape=flexArrow;endArrow=classic;html=1;rounded=0;" parent="1" edge="1">
          <mxGeometry width="50" height="50" relative="1" as="geometry">
            <mxPoint x="-130" y="-180" as="sourcePoint" />
            <mxPoint x="-150" y="-130" as="targetPoint" />
          </mxGeometry>
        </mxCell>
        <mxCell id="yBwHXoivwdxCobR9T3mU-46" value="" style="shape=flexArrow;endArrow=classic;html=1;rounded=0;" parent="1" edge="1">
          <mxGeometry width="50" height="50" relative="1" as="geometry">
            <mxPoint x="-40" y="-180" as="sourcePoint" />
            <mxPoint x="-20" y="-130" as="targetPoint" />
          </mxGeometry>
        </mxCell>
        <mxCell id="yBwHXoivwdxCobR9T3mU-47" value="" style="edgeStyle=elbowEdgeStyle;elbow=horizontal;endArrow=classic;html=1;curved=0;rounded=0;endSize=8;startSize=8;entryX=0;entryY=0;entryDx=0;entryDy=0;exitX=0.132;exitY=0.004;exitDx=0;exitDy=0;exitPerimeter=0;" parent="1" source="yBwHXoivwdxCobR9T3mU-33" target="yBwHXoivwdxCobR9T3mU-42" edge="1">
          <mxGeometry width="50" height="50" relative="1" as="geometry">
            <mxPoint x="-470" y="-110" as="sourcePoint" />
            <mxPoint x="-200" as="targetPoint" />
            <Array as="points">
              <mxPoint x="-510" y="-220" />
            </Array>
          </mxGeometry>
        </mxCell>
        <mxCell id="yBwHXoivwdxCobR9T3mU-48" value="&lt;font style=&quot;font-size: 14px;&quot;&gt;int id;&lt;/font&gt;&lt;div&gt;&lt;font size=&quot;3&quot;&gt;String name;&lt;/font&gt;&lt;/div&gt;&lt;div&gt;&lt;font size=&quot;3&quot;&gt;Cart cart;&lt;/font&gt;&lt;/div&gt;&lt;div&gt;&lt;font size=&quot;3&quot;&gt;List&amp;lt;Order&amp;gt;Orders&lt;/font&gt;&lt;/div&gt;" style="rounded=0;whiteSpace=wrap;html=1;" parent="1" vertex="1">
          <mxGeometry x="650" y="-410" width="135" height="110" as="geometry" />
        </mxCell>
        <mxCell id="yBwHXoivwdxCobR9T3mU-49" value="&lt;span style=&quot;font-size: 14px;&quot;&gt;8.User&lt;/span&gt;" style="text;html=1;align=center;verticalAlign=middle;whiteSpace=wrap;rounded=0;" parent="1" vertex="1">
          <mxGeometry x="687.5" y="-440" width="60" height="30" as="geometry" />
        </mxCell>
        <mxCell id="yBwHXoivwdxCobR9T3mU-50" value="" style="rounded=0;whiteSpace=wrap;html=1;" parent="1" vertex="1">
          <mxGeometry x="862.5" y="-400" width="280" height="150" as="geometry" />
        </mxCell>
        <mxCell id="yBwHXoivwdxCobR9T3mU-51" value="&lt;span style=&quot;font-size: 14px;&quot;&gt;9. Cart&lt;/span&gt;" style="text;html=1;align=center;verticalAlign=middle;whiteSpace=wrap;rounded=0;" parent="1" vertex="1">
          <mxGeometry x="972.5" y="-440" width="60" height="30" as="geometry" />
        </mxCell>
        <mxCell id="yBwHXoivwdxCobR9T3mU-53" value="&lt;font style=&quot;font-size: 14px;&quot;&gt;Map&amp;lt;Integer,Integer&amp;gt; categoryIdVsCount&lt;/font&gt;" style="text;html=1;align=center;verticalAlign=middle;whiteSpace=wrap;rounded=0;" parent="1" vertex="1">
          <mxGeometry x="872.5" y="-405" width="260" height="60" as="geometry" />
        </mxCell>
        <mxCell id="yBwHXoivwdxCobR9T3mU-54" value="" style="endArrow=none;html=1;rounded=0;entryX=1;entryY=0.327;entryDx=0;entryDy=0;entryPerimeter=0;" parent="1" target="yBwHXoivwdxCobR9T3mU-50" edge="1">
          <mxGeometry width="50" height="50" relative="1" as="geometry">
            <mxPoint x="862.5" y="-352" as="sourcePoint" />
            <mxPoint x="662.5" y="-190" as="targetPoint" />
          </mxGeometry>
        </mxCell>
        <mxCell id="yBwHXoivwdxCobR9T3mU-55" value="&lt;font style=&quot;font-size: 14px;&quot;&gt;//add item&lt;/font&gt;&lt;div&gt;&lt;font size=&quot;3&quot;&gt;//remove item&lt;/font&gt;&lt;/div&gt;&lt;div&gt;&lt;font size=&quot;3&quot;&gt;//view cart&lt;/font&gt;&lt;/div&gt;&lt;div&gt;&lt;font size=&quot;3&quot;&gt;//empty cart&lt;/font&gt;&lt;/div&gt;" style="text;html=1;align=center;verticalAlign=middle;whiteSpace=wrap;rounded=0;" parent="1" vertex="1">
          <mxGeometry x="947.5" y="-330" width="110" height="70" as="geometry" />
        </mxCell>
        <mxCell id="yBwHXoivwdxCobR9T3mU-56" value="" style="rounded=0;whiteSpace=wrap;html=1;" parent="1" vertex="1">
          <mxGeometry x="440" y="-405" width="135" height="110" as="geometry" />
        </mxCell>
        <mxCell id="yBwHXoivwdxCobR9T3mU-57" value="&lt;span style=&quot;font-size: 14px;&quot;&gt;10.UserController&lt;/span&gt;" style="text;html=1;align=center;verticalAlign=middle;whiteSpace=wrap;rounded=0;" parent="1" vertex="1">
          <mxGeometry x="446.25" y="-440" width="122.5" height="30" as="geometry" />
        </mxCell>
        <mxCell id="yBwHXoivwdxCobR9T3mU-58" value="&lt;span style=&quot;font-size: 14px;&quot;&gt;List&amp;lt;User&amp;gt;users&lt;/span&gt;" style="text;html=1;align=center;verticalAlign=middle;whiteSpace=wrap;rounded=0;" parent="1" vertex="1">
          <mxGeometry x="446.25" y="-400" width="120" height="30" as="geometry" />
        </mxCell>
        <mxCell id="yBwHXoivwdxCobR9T3mU-59" value="" style="endArrow=none;html=1;rounded=0;exitX=0;exitY=0.5;exitDx=0;exitDy=0;entryX=1;entryY=0.5;entryDx=0;entryDy=0;" parent="1" source="yBwHXoivwdxCobR9T3mU-56" target="yBwHXoivwdxCobR9T3mU-56" edge="1">
          <mxGeometry width="50" height="50" relative="1" as="geometry">
            <mxPoint x="440" y="-170" as="sourcePoint" />
            <mxPoint x="490" y="-220" as="targetPoint" />
          </mxGeometry>
        </mxCell>
        <mxCell id="yBwHXoivwdxCobR9T3mU-60" value="&lt;font style=&quot;font-size: 14px;&quot;&gt;//CRUD Operations&lt;/font&gt;" style="text;html=1;align=center;verticalAlign=middle;whiteSpace=wrap;rounded=0;" parent="1" vertex="1">
          <mxGeometry x="470" y="-340" width="60" height="30" as="geometry" />
        </mxCell>
        <mxCell id="yBwHXoivwdxCobR9T3mU-61" value="" style="rounded=0;whiteSpace=wrap;html=1;" parent="1" vertex="1">
          <mxGeometry x="420" y="-160" width="320" height="230" as="geometry" />
        </mxCell>
        <mxCell id="yBwHXoivwdxCobR9T3mU-62" value="&lt;span style=&quot;font-size: 14px;&quot;&gt;11.App&lt;/span&gt;" style="text;html=1;align=center;verticalAlign=middle;whiteSpace=wrap;rounded=0;" parent="1" vertex="1">
          <mxGeometry x="560" y="-200" width="60" height="30" as="geometry" />
        </mxCell>
        <mxCell id="yBwHXoivwdxCobR9T3mU-63" value="&lt;font style=&quot;font-size: 14px;&quot;&gt;UserController userController;&lt;/font&gt;&lt;div&gt;&lt;font size=&quot;3&quot;&gt;WareHouseController wareHouseController;&lt;/font&gt;&lt;/div&gt;&lt;div&gt;&lt;font size=&quot;3&quot;&gt;OrderController orderController;&lt;/font&gt;&lt;/div&gt;" style="text;html=1;align=center;verticalAlign=middle;whiteSpace=wrap;rounded=0;" parent="1" vertex="1">
          <mxGeometry x="420" y="-150" width="320" height="60" as="geometry" />
        </mxCell>
        <mxCell id="yBwHXoivwdxCobR9T3mU-64" value="" style="endArrow=classic;html=1;rounded=0;exitX=0.003;exitY=0.867;exitDx=0;exitDy=0;exitPerimeter=0;" parent="1" source="yBwHXoivwdxCobR9T3mU-61" edge="1">
          <mxGeometry width="50" height="50" relative="1" as="geometry">
            <mxPoint x="30" y="-30" as="sourcePoint" />
            <mxPoint x="-260" y="39" as="targetPoint" />
          </mxGeometry>
        </mxCell>
        <mxCell id="yBwHXoivwdxCobR9T3mU-65" value="" style="edgeStyle=elbowEdgeStyle;elbow=horizontal;endArrow=classic;html=1;curved=0;rounded=0;endSize=8;startSize=8;exitX=0;exitY=0.5;exitDx=0;exitDy=0;" parent="1" source="yBwHXoivwdxCobR9T3mU-63" edge="1">
          <mxGeometry width="50" height="50" relative="1" as="geometry">
            <mxPoint x="280" y="-90" as="sourcePoint" />
            <mxPoint x="440" y="-360" as="targetPoint" />
            <Array as="points">
              <mxPoint x="310" y="-190" />
            </Array>
          </mxGeometry>
        </mxCell>
        <mxCell id="yBwHXoivwdxCobR9T3mU-66" value="" style="endArrow=classic;html=1;rounded=0;entryX=0.015;entryY=0.432;entryDx=0;entryDy=0;entryPerimeter=0;" parent="1" target="yBwHXoivwdxCobR9T3mU-48" edge="1">
          <mxGeometry width="50" height="50" relative="1" as="geometry">
            <mxPoint x="575" y="-362" as="sourcePoint" />
            <mxPoint x="590" y="-200" as="targetPoint" />
          </mxGeometry>
        </mxCell>
        <mxCell id="yBwHXoivwdxCobR9T3mU-67" value="" style="endArrow=classic;html=1;rounded=0;entryX=0;entryY=0.25;entryDx=0;entryDy=0;exitX=1;exitY=0.432;exitDx=0;exitDy=0;exitPerimeter=0;" parent="1" source="yBwHXoivwdxCobR9T3mU-48" target="yBwHXoivwdxCobR9T3mU-50" edge="1">
          <mxGeometry width="50" height="50" relative="1" as="geometry">
            <mxPoint x="790" y="-360" as="sourcePoint" />
            <mxPoint x="590" y="-200" as="targetPoint" />
          </mxGeometry>
        </mxCell>
        <mxCell id="eV23lV5gEwqDtuUvI4YU-1" value="" style="rounded=0;whiteSpace=wrap;html=1;" vertex="1" parent="1">
          <mxGeometry x="1233.75" y="-160" width="362.5" height="250" as="geometry" />
        </mxCell>
        <mxCell id="eV23lV5gEwqDtuUvI4YU-2" value="&lt;pre lang=&quot;java&quot; class=&quot;code highlight&quot;&gt;&lt;font style=&quot;font-size: 14px;&quot; face=&quot;Helvetica&quot;&gt;&lt;span class=&quot;&quot;&gt;int id;&lt;/span&gt;&lt;/font&gt;&lt;/pre&gt;&lt;pre lang=&quot;java&quot; class=&quot;code highlight&quot;&gt;&lt;font style=&quot;font-size: 14px;&quot; face=&quot;Helvetica&quot;&gt;&lt;span class=&quot;&quot;&gt;User user;&lt;/span&gt;&lt;br&gt;&lt;span class=&quot;&quot;&gt;    Address deliveryAddress;&lt;/span&gt;&lt;br&gt;&lt;span class=&quot;&quot;&gt;    Map&amp;lt;Integer, Integer&amp;gt; productCategoryAndCountMap;&lt;/span&gt;&lt;br&gt;&lt;span class=&quot;&quot;&gt;    Warehouse warehouse;&lt;/span&gt;&lt;br&gt;&lt;span class=&quot;&quot;&gt;    Invoice invoice;&lt;/span&gt;&lt;br&gt;&lt;span class=&quot;&quot;&gt;    Payment payment;&lt;/span&gt;&lt;br&gt;&lt;span class=&quot;&quot;&gt;    OrderStatus orderStatus;&lt;/span&gt;&lt;/font&gt;&lt;br&gt;&lt;/pre&gt;" style="text;html=1;align=center;verticalAlign=middle;whiteSpace=wrap;rounded=0;" vertex="1" parent="1">
          <mxGeometry x="1240" y="-145" width="340" height="130" as="geometry" />
        </mxCell>
        <mxCell id="eV23lV5gEwqDtuUvI4YU-3" value="" style="edgeStyle=elbowEdgeStyle;elbow=vertical;endArrow=classic;html=1;curved=0;rounded=0;endSize=8;startSize=8;entryX=0.881;entryY=1.009;entryDx=0;entryDy=0;entryPerimeter=0;exitX=0.23;exitY=-0.004;exitDx=0;exitDy=0;exitPerimeter=0;" edge="1" parent="1" source="eV23lV5gEwqDtuUvI4YU-1" target="yBwHXoivwdxCobR9T3mU-48">
          <mxGeometry width="50" height="50" relative="1" as="geometry">
            <mxPoint x="968" y="-150" as="sourcePoint" />
            <mxPoint x="920" y="-90" as="targetPoint" />
          </mxGeometry>
        </mxCell>
        <mxCell id="eV23lV5gEwqDtuUvI4YU-4" value="&lt;span style=&quot;font-size: 14px;&quot;&gt;12. Order&lt;/span&gt;" style="text;html=1;align=center;verticalAlign=middle;whiteSpace=wrap;rounded=0;" vertex="1" parent="1">
          <mxGeometry x="1370" y="-190" width="90" height="30" as="geometry" />
        </mxCell>
        <mxCell id="eV23lV5gEwqDtuUvI4YU-7" value="" style="rounded=0;whiteSpace=wrap;html=1;" vertex="1" parent="1">
          <mxGeometry x="922.5" y="-125" width="135" height="110" as="geometry" />
        </mxCell>
        <mxCell id="eV23lV5gEwqDtuUvI4YU-8" value="&lt;span style=&quot;font-size: 14px;&quot;&gt;13. OrderController&lt;/span&gt;" style="text;html=1;align=center;verticalAlign=middle;whiteSpace=wrap;rounded=0;" vertex="1" parent="1">
          <mxGeometry x="927.5" y="-155" width="122.5" height="30" as="geometry" />
        </mxCell>
        <mxCell id="eV23lV5gEwqDtuUvI4YU-9" value="&lt;font style=&quot;font-size: 14px;&quot;&gt;List&amp;lt;Orders&amp;gt; orders&lt;/font&gt;" style="text;html=1;align=center;verticalAlign=middle;whiteSpace=wrap;rounded=0;" vertex="1" parent="1">
          <mxGeometry x="915" y="-110" width="150" height="30" as="geometry" />
        </mxCell>
        <mxCell id="eV23lV5gEwqDtuUvI4YU-10" value="" style="endArrow=none;html=1;rounded=0;exitX=0;exitY=0.5;exitDx=0;exitDy=0;entryX=1;entryY=0.5;entryDx=0;entryDy=0;" edge="1" parent="1" source="eV23lV5gEwqDtuUvI4YU-7" target="eV23lV5gEwqDtuUvI4YU-7">
          <mxGeometry width="50" height="50" relative="1" as="geometry">
            <mxPoint x="940" y="60" as="sourcePoint" />
            <mxPoint x="990" y="10" as="targetPoint" />
          </mxGeometry>
        </mxCell>
        <mxCell id="eV23lV5gEwqDtuUvI4YU-11" value="//CRUD Operations" style="text;html=1;align=center;verticalAlign=middle;whiteSpace=wrap;rounded=0;" vertex="1" parent="1">
          <mxGeometry x="935" y="-60" width="110" height="30" as="geometry" />
        </mxCell>
        <mxCell id="eV23lV5gEwqDtuUvI4YU-12" value="" style="endArrow=classic;html=1;rounded=0;exitX=1.006;exitY=0.348;exitDx=0;exitDy=0;exitPerimeter=0;" edge="1" parent="1" source="yBwHXoivwdxCobR9T3mU-61">
          <mxGeometry width="50" height="50" relative="1" as="geometry">
            <mxPoint x="940" y="60" as="sourcePoint" />
            <mxPoint x="923" y="-80" as="targetPoint" />
          </mxGeometry>
        </mxCell>
        <mxCell id="eV23lV5gEwqDtuUvI4YU-14" value="" style="endArrow=classic;html=1;rounded=0;entryX=0.003;entryY=0.324;entryDx=0;entryDy=0;entryPerimeter=0;" edge="1" parent="1" target="eV23lV5gEwqDtuUvI4YU-1">
          <mxGeometry width="50" height="50" relative="1" as="geometry">
            <mxPoint x="1060" y="-80" as="sourcePoint" />
            <mxPoint x="990" y="10" as="targetPoint" />
          </mxGeometry>
        </mxCell>
        <mxCell id="eV23lV5gEwqDtuUvI4YU-15" value="" style="rounded=0;whiteSpace=wrap;html=1;" vertex="1" parent="1">
          <mxGeometry x="1800" y="-160" width="120" height="60" as="geometry" />
        </mxCell>
        <mxCell id="eV23lV5gEwqDtuUvI4YU-16" value="&lt;span style=&quot;font-size: 14px;&quot;&gt;14.Invoice&lt;/span&gt;" style="text;html=1;align=center;verticalAlign=middle;whiteSpace=wrap;rounded=0;" vertex="1" parent="1">
          <mxGeometry x="1810" y="-200" width="90" height="30" as="geometry" />
        </mxCell>
        <mxCell id="eV23lV5gEwqDtuUvI4YU-17" value="" style="rounded=0;whiteSpace=wrap;html=1;" vertex="1" parent="1">
          <mxGeometry x="1810" y="5" width="120" height="60" as="geometry" />
        </mxCell>
        <mxCell id="eV23lV5gEwqDtuUvI4YU-18" value="&lt;span style=&quot;font-size: 14px;&quot;&gt;15. Payment&lt;/span&gt;" style="text;html=1;align=center;verticalAlign=middle;whiteSpace=wrap;rounded=0;" vertex="1" parent="1">
          <mxGeometry x="1825" y="-30" width="90" height="30" as="geometry" />
        </mxCell>
        <mxCell id="eV23lV5gEwqDtuUvI4YU-19" value="" style="endArrow=classic;html=1;rounded=0;entryX=0.008;entryY=0.617;entryDx=0;entryDy=0;entryPerimeter=0;exitX=0.994;exitY=0.416;exitDx=0;exitDy=0;exitPerimeter=0;" edge="1" parent="1" source="eV23lV5gEwqDtuUvI4YU-1" target="eV23lV5gEwqDtuUvI4YU-15">
          <mxGeometry width="50" height="50" relative="1" as="geometry">
            <mxPoint x="1650" y="-60" as="sourcePoint" />
            <mxPoint x="1410" y="-90" as="targetPoint" />
          </mxGeometry>
        </mxCell>
        <mxCell id="eV23lV5gEwqDtuUvI4YU-20" value="" style="endArrow=classic;html=1;rounded=0;entryX=0;entryY=0.5;entryDx=0;entryDy=0;exitX=1;exitY=0.5;exitDx=0;exitDy=0;" edge="1" parent="1" source="eV23lV5gEwqDtuUvI4YU-1" target="eV23lV5gEwqDtuUvI4YU-17">
          <mxGeometry width="50" height="50" relative="1" as="geometry">
            <mxPoint x="1360" y="-40" as="sourcePoint" />
            <mxPoint x="1410" y="-90" as="targetPoint" />
          </mxGeometry>
        </mxCell>
      </root>
    </mxGraphModel>
  </diagram>
</mxfile>
